<?xml version="1.0" standalone="no"?><!DOCTYPE svg PUBLIC "-//W3C//DTD SVG 1.1//EN" "http://www.w3.org/Graphics/SVG/1.1/DTD/svg11.dtd"><svg t="1745824181925" class="icon" viewBox="0 0 1024 1024" version="1.1" xmlns="http://www.w3.org/2000/svg" p-id="4226" xmlns:xlink="http://www.w3.org/1999/xlink" width="200" height="200"><path d="M513.7 510.7m-447 0a447 447 0 1 0 894 0 447 447 0 1 0-894 0Z" fill="#2771BA" p-id="4227"></path><path d="M511.6 647.1c35 0 136.4 20.1 180.3 47.8 45.5 28.7 110.3 80.1 143.3 118.7 8.5 9.9-147.4 140.3-328 140.3-180.2 0.1-328.8-130.1-321.1-140.2 34.1-45.1 101.2-98.1 143.7-118.7 44.9-21.7 136.8-47.9 181.8-47.9z" fill="#F4F4F4" p-id="4228"></path><path d="M460.6 611.9v100.2h100v-120h-100z" fill="#FCD9BE" p-id="4229"></path><path d="M564.2 598.1l-103.5 54.5v-82.3z" fill="#EDCCB4" p-id="4230"></path><path d="M666.2 392.7c0-37.8-2.2-76.5-26.2-100.5-29.6-29.6-81.4-37-126.6-37-47.7 0-103.6 10.6-133.5 43.1-21.4 23.3-20.8 59.2-19.7 94.5-13.2 0.8-21.1 18.2-17.6 31C347 440 360 471.3 366 475.2c0.2 0.1 0.3 0.1 0.5 0.1 7.1 33.2 21.4 63.8 45.9 83.1 27.8 21.9 62.9 56.8 101.1 56.8 40.4 0 77.3-36.4 105.8-60.6 22.2-18.9 35-47.9 41.5-79.3 0.2 0.2 0.5 0.2 0.8 0 6-3.8 19-35.2 23.4-51.4 3.5-13.3-4.9-31.2-18.8-31.2z" fill="#FFDDB8" p-id="4231"></path><path d="M513.8 255.2c47.7 0 103.6 10.6 133.5 43.1 21.4 23.3 20.8 59.2 19.7 94.5 13.2 0.8 21.1 18.2 17.6 31-4.4 16.2-17.4 47.5-23.4 51.4-0.2 0.1-0.3 0.1-0.5 0.1-7.1 33.2-21.4 63.8-45.9 83.1-27.8 21.9-62.9 56.8-101.1 56.8v-360z" fill="#F7CFB5" p-id="4232"></path><path d="M581 360c9 11 16.8 18.9 37 34 13.3 10 33.7 18.6 33.7 28.3s5 27.9 5.5 32c0.9 8.6 4-49.3 9-61.6 9.4-23.2-1.8-88.3-23.2-103.2-28.9-20.1-32.5-33.4-129.6-34.3-73.9-0.6-101.4 15.7-129.4 35.9-22 15.9-29.5 59.3-28.2 81.9 1.5 26 3.1 16 5.1 30.7 2.9 21.5 9.6 69.8 10.8 65.3 8.9-26.4 5.8-42.3 11.1-50.8l92.7-37.2L581 360z" fill="#3F3122" p-id="4233"></path><path d="M546 954c-14.4-6.3 40.3-174.2 50.9-189.6 3-4.4 21 73.6 58.2 72.2 4.6-0.3-109 74.3-109.1 117.4z" fill="#CECECE" p-id="4234"></path><path d="M544 940.8c-14.4-6.3 40.3-174.2 50.9-189.6 3-4.4 21 73.6 58.2 72.2 4.6-0.2-109 74.4-109.1 117.4z" fill="#F4F4F4" p-id="4235"></path><path d="M475.9 954c14.4-6.3-40.3-174.2-50.9-189.6-3-4.4-21 73.6-58.2 72.2-4.6-0.3 109 74.3 109.1 117.4z" fill="#CECECE" p-id="4236"></path><path d="M477.9 940.8c14.4-6.3-40.3-174.2-50.9-189.6-3-4.4-21 73.6-58.2 72.2-4.6-0.2 109 74.4 109.1 117.4z" fill="#F4F4F4" p-id="4237"></path><path d="M691.4 826.5c-4.7-12.1-5.3-16.4-5.9-20.6-1.1-7.5-2.4-16-44.7-104.5-3.2-6.6-17.8-19.1-35.6-30.5-20-12.8-34.3-18.2-37.7-17.8 0.3 0 1.1-0.3 1.9-1.2l-10.4-9.4c2.6-2.9 6.5-3.9 11.7-3.2 11.4 1.7 30.9 12.4 45.3 21.9 9.2 6.1 31.4 21.7 37.3 34.1 43.3 90.4 44.6 99.2 46 108.5 0.5 3.6 1 7 5.1 17.6l-13 5.1z" fill="#0F3D63" p-id="4238"></path><path d="M697.9 823.9m-22 0a22 22 0 1 0 44 0 22 22 0 1 0-44 0Z" fill="#0F3D63" p-id="4239"></path><path d="M346.4 723.5c-1.4-2.8-5.7-11.3 24.5-39.3 9.3-8.6 56.9-50.6 83.3-34.6l-7.3 12c-4.5-2.8-12.7-1.8-23 2.7-12.7 5.6-28.3 16.3-42.7 29.5-15.2 14-21.4 23.5-21.8 25.7 0.1-0.3 0.1-1.2-0.5-2.3l-12.5 6.3z" fill="#0F3D63" p-id="4240"></path><path d="M300.3 784.7s0.1-0.4 0.1-1l-16-0.2c0.1-7.8 12.8-24.1 23.5-36.4 7.1-8.2 25.4-28.1 40.8-36.7l7.7 14c-20.4 11.5-53.8 52.3-56.1 60.3z" fill="#0F3D63" p-id="4241"></path><path d="M370 800.1l-15.3-4.8c0 0.1-0.1 0.2-0.1 0.3 1.5-7.7-4.9-61.6-9.4-72.1l14.7-6.3c5.4 12.4 13.4 72.5 10.1 82.9zM301 844.3c-11.2-19.7-13.2-49.6-12.7-62.7l8 0.3c-0.5 12.3 1.3 40.3 11.7 58.4l-7 4z" fill="#0F3D63" p-id="4242"></path><path d="M338.8 849.5l-3.5-7.2c2.9-1.4 9.7-10.3 15.9-22.6 6.4-12.8 8.9-22.6 7.9-25.4l7.5-2.7c2.8 8-4.9 24.8-8.3 31.6-1.9 3.8-11.5 22.4-19.5 26.3z" fill="#0F3D63" p-id="4243"></path><path d="M307.2 845.9m-10 0a10 10 0 1 0 20 0 10 10 0 1 0-20 0Z" fill="#0F3D63" p-id="4244"></path><path d="M337 845.9m-10 0a10 10 0 1 0 20 0 10 10 0 1 0-20 0Z" fill="#0F3D63" p-id="4245"></path><path d="M460.7 629.7l51.8 46-105.8 32z" fill="" p-id="4246"></path><path d="M560.4 629.7l-50.9 46 104.9 32z" fill="" p-id="4247"></path><path d="M439.8 672.7h140l-66 200z" fill="" p-id="4248"></path><path d="M513.7 103.7c55 0 108.3 10.8 158.4 32 48.5 20.5 92 49.8 129.4 87.2s66.7 80.9 87.2 129.4c21.2 50.2 32 103.4 32 158.4s-10.8 108.3-32 158.4c-20.5 48.5-49.8 92-87.2 129.4s-80.9 66.7-129.4 87.2c-50.2 21.2-103.4 32-158.4 32s-108.3-10.8-158.4-32c-48.5-20.5-92-49.8-129.4-87.2s-66.7-80.9-87.2-129.4c-21.2-50.2-32-103.4-32-158.4s10.8-108.3 32-158.4c20.5-48.5 49.8-92 87.2-129.4s80.9-66.7 129.4-87.2c50.1-21.2 103.4-32 158.4-32m0-40c-246.9 0-447 200.1-447 447s200.1 447 447 447 447-200.1 447-447-200.1-447-447-447z" fill="#FFFFFF" p-id="4249"></path></svg>